
<!DOCTYPE svg PUBLIC "-//W3C//DTD SVG 1.1//EN" "http://www.w3.org/Graphics/SVG/1.1/DTD/svg11.dtd">
<svg version="1.1" xmlns="http://www.w3.org/2000/svg" xmlns:xlink="http://www.w3.org/1999/xlink" x="0px" y="0px"
	 width="103px" height="82px" viewBox="0 0 103 82" enable-background="new 0 0 103 82;"
	 xml:space="preserve">

<path class="st0" d="M100.388,12.201c0,5.532-4.532,10.017-10.124,10.017H12.51c-5.589,0-10.122-4.485-10.122-10.017l0,0
	C2.388,6.67,6.92,2.184,12.51,2.184h77.754C95.856,2.184,100.388,6.67,100.388,12.201L100.388,12.201z M100.388,41.184
	c0-5.533-4.532-10.018-10.124-10.018H12.51c-5.589,0-10.122,4.484-10.122,10.018l0,0c0,5.532,4.532,10.019,10.122,10.019h77.754
	C95.856,51.202,100.388,46.716,100.388,41.184L100.388,41.184z M100.388,70.166c0-5.534-4.532-10.018-10.124-10.018H12.51
	c-5.589,0-10.122,4.483-10.122,10.018l0,0c0,5.533,4.532,10.018,10.122,10.018h77.754C95.856,80.184,100.388,75.699,100.388,70.166
	L100.388,70.166z"/>
</svg>
